<?xml version="1.0" encoding="UTF-8"?>
<svg xmlns="http://www.w3.org/2000/svg" viewBox="0 0 380 380" width="800" height="800">
  <rect width="380" height="380" fill="#f5efe2"></rect>
  <path d="M 60 60 L 320 60 L 320 240 Q 320 320 190 360 Q 60 320 60 240 Z" fill="none" stroke="#1f3a2e" stroke-width="1.5"></path>
  <path d="M 75 75 L 305 75 L 305 238 Q 305 308 190 343 Q 75 308 75 238 Z" fill="none" stroke="#1f3a2e" stroke-width="0.6" opacity="0.4"></path>
  <line x1="75" y1="112" x2="305" y2="112" stroke="#1f3a2e" stroke-width="0.6" opacity="0.4"></line>
  <text x="190" y="98" text-anchor="middle" fill="#1f3a2e" font-family="DM Mono, Courier New, monospace" font-size="10.5" letter-spacing="4">EST · COUNTRY STORE</text>
  <text x="190" y="180" text-anchor="middle" fill="#1f3a2e" font-family="Fraunces, Georgia, serif" font-weight="500" font-size="64" letter-spacing="-2">Chases</text>
  <line x1="105" y1="200" x2="170" y2="200" stroke="#1f3a2e" stroke-width="0.8"></line>
  <line x1="210" y1="200" x2="275" y2="200" stroke="#1f3a2e" stroke-width="0.8"></line>
  <rect x="186" y="196" width="8" height="8" transform="rotate(45 190 200)" fill="#6b1e1e"></rect>
  <text x="190" y="228" text-anchor="middle" fill="#1f3a2e" font-family="Inter Tight, Helvetica, sans-serif" font-weight="600" font-size="13" letter-spacing="3.5">SNACKS · HOT FOOD</text>
  <text x="190" y="250" text-anchor="middle" fill="#1f3a2e" font-family="Inter Tight, Helvetica, sans-serif" font-weight="600" font-size="13" letter-spacing="3.5">LOTTO · LIVE BAIT</text>
  <text x="190" y="278" text-anchor="middle" fill="#1f3a2e" font-family="DM Mono, Courier New, monospace" font-size="10" letter-spacing="2.5" opacity="0.6">OPEN DAILY</text>
  <g transform="translate(190 308)">
    <circle cx="0" cy="0" r="14" fill="none" stroke="#1f3a2e" stroke-width="1"></circle>
    <text x="0" y="4" text-anchor="middle" fill="#1f3a2e" font-family="DM Mono, Courier New, monospace" font-size="11" font-weight="500">C</text>
  </g>
</svg>